<svg id="Ebene_1" xmlns="http://www.w3.org/2000/svg" viewBox="0 0 383.99 384"><title>back-button</title><path class="icon-color-white" d="M192,384c105.86,0,192-86.13,192-192S297.86,0,192,0,0,86.13,0,192,86.13,384,192,384Zm0-357.71c91.37,0,165.71,74.33,165.71,165.71S283.37,357.71,192,357.71,26.28,283.38,26.28,192,100.62,26.29,192,26.29Zm0,0"/><path class="icon-color-white" d="M166.21,274.23a13.14,13.14,0,0,0,18.59-18.58l-50.5-50.5H280.53a13.15,13.15,0,0,0,0-26.29l-146.24,0,50.51-50.51a13.15,13.15,0,0,0-18.59-18.59L93.27,182.71a13.15,13.15,0,0,0,0,18.59Zm0,0"/></svg>
