<svg xmlns="http://www.w3.org/2000/svg" xmlns:xlink="http://www.w3.org/1999/xlink" version="1.1" x="0px" y="0px" viewBox="0 0 100 125" enable-background="new 0 0 100 100" xml:space="preserve"><g><circle fill="#000000" cx="48.5" cy="50" r="7.7"/><path fill="#000000" d="M37.8,35.4c-1.1-1.1-2.8-1.1-3.9,0c-8,8-8,21.1,0,29.2c0.5,0.5,1.2,0.8,1.9,0.8s1.4-0.3,1.9-0.8   c1.1-1.1,1.1-2.8,0-3.9c-5.9-5.9-5.9-15.5,0-21.4C38.8,38.2,38.8,36.5,37.8,35.4z"/><path fill="#000000" d="M63.1,35.4c-1.1-1.1-2.8-1.1-3.9,0c-1.1,1.1-1.1,2.8,0,3.9c5.9,5.9,5.9,15.5,0,21.4c-1.1,1.1-1.1,2.8,0,3.9   c0.5,0.5,1.2,0.8,1.9,0.8s1.4-0.3,1.9-0.8C71.1,56.5,71.1,43.5,63.1,35.4z"/><path fill="#000000" d="M66.2,28.4c-1.1,1.1-1.1,2.8,0,3.9C76,42,76,58,66.2,67.8c-1.1,1.1-1.1,2.8,0,3.9c0.5,0.5,1.2,0.8,1.9,0.8   s1.4-0.3,1.9-0.8C82,59.7,82,40.3,70.1,28.4C69,27.3,67.3,27.3,66.2,28.4z"/><path fill="#000000" d="M30.7,32.2c1.1-1.1,1.1-2.8,0-3.9c-1.1-1.1-2.8-1.1-3.9,0c-11.9,11.9-11.9,31.3,0,43.3   c0.5,0.5,1.2,0.8,1.9,0.8s1.4-0.3,1.9-0.8c1.1-1.1,1.1-2.8,0-3.9C20.9,58,20.9,42,30.7,32.2z"/></g></svg>