<svg id="Ebene_1" xmlns="http://www.w3.org/2000/svg" xmlns:xlink="http://www.w3.org/1999/xlink" viewBox="0 0 311.88 384"><defs><style>.cls-1{fill:none;}.cls-3{clip-path:url(#clip-path);}</style><clipPath id="clip-path" transform="translate(-0.97)"><rect class="cls-1" width="313" height="384"/></clipPath></defs><title>delete</title><path class="icon-color-white" d="M210,139.13a9,9,0,0,0-9,9v170a9,9,0,1,0,18,0v-170a9,9,0,0,0-9-9Zm0,0" transform="translate(-0.97)"/><g class="cls-3"><path class="icon-color-white" d="M103.85,139.13a9,9,0,0,0-9,9v170a9,9,0,1,0,18,0v-170a9,9,0,0,0-9-9Zm0,0" transform="translate(-0.97)"/><path class="icon-color-white" d="M26.51,114.32V335.89A49.61,49.61,0,0,0,39.7,370.11,44.32,44.32,0,0,0,71.84,384H242a44.32,44.32,0,0,0,32.14-13.89,49.65,49.65,0,0,0,13.18-34.22V114.32a34.35,34.35,0,0,0-8.81-67.56h-46V35.52A35.32,35.32,0,0,0,196.84,0H117A35.32,35.32,0,0,0,81.37,35.52V46.76H35.32a34.36,34.36,0,0,0-8.81,67.56ZM242,366H71.84c-15.38,0-27.34-13.2-27.34-30.12V115.11H269.32V335.89c0,16.92-12,30.12-27.34,30.12ZM99.35,35.52A17.33,17.33,0,0,1,117,18h79.86a17.32,17.32,0,0,1,17.62,17.53V46.76H99.35Zm-64,29.23H278.49a16.19,16.19,0,1,1,0,32.38H35.32a16.19,16.19,0,0,1,0-32.38Zm0,0" transform="translate(-0.97)"/></g><path class="icon-color-white" d="M156.91,139.13a9,9,0,0,0-9,9v170a9,9,0,1,0,18,0v-170a9,9,0,0,0-9-9Zm0,0" transform="translate(-0.97)"/></svg>
