<?xml version="1.0" encoding="utf-8"?>
<!-- Generator: Adobe Illustrator 23.0.6, SVG Export Plug-In . SVG Version: 6.00 Build 0)  -->
<svg version="1.1" id="Ebene_1" xmlns="http://www.w3.org/2000/svg" xmlns:xlink="http://www.w3.org/1999/xlink" x="0px" y="0px"
	 viewBox="0 0 512 512" style="enable-background:new 0 0 512 512;" xml:space="preserve">
  <style>
.master_tree_icon {
  fill: #54bec3;
}
.foundation_tree_icon {
  fill: #E58C13;
}
  </style>
  <path class="foundation_tree_icon" d="M134.6,480c38.9,0,70.6-31.7,70.6-70.7c0-17.1-6.2-33.7-17.5-46.6c-10-11.5-23.5-19.4-38.2-22.5v-43.1L256,241.7l106.4,55.4
  v43.1c-32.2,6.9-55.7,35.6-55.7,69.1c0,39,31.7,70.7,70.6,70.7s70.7-31.7,70.7-70.7c0-17.1-6.2-33.7-17.5-46.6
  c-10-11.5-23.5-19.4-38.2-22.5v-57.4c0-2.7-1.5-5.1-3.9-6.3l-117.5-60.8v-43.9c32.2-6.9,55.7-35.6,55.7-69.1
  c0-39-31.7-70.7-70.6-70.7s-70.6,31.7-70.6,70.7c0,17.1,6.2,33.7,17.5,46.6c10,11.5,23.5,19.4,38.2,22.5v43.9l-117.5,60.8
  c-2.4,1.2-3.9,3.6-3.9,6.3v57.4C87.5,347.1,64,375.8,64,409.3C64,448.3,95.7,480,134.6,480z M418.2,409.3
  c0,22.5-18.3,40.8-40.8,40.8s-40.8-18.3-40.8-40.8s18.3-40.8,40.8-40.8S418.2,386.8,418.2,409.3z M215.2,102.7
  c0-22.5,18.3-40.8,40.8-40.8c22.5,0,40.8,18.3,40.8,40.8s-18.3,40.8-40.8,40.8S215.2,125.2,215.2,102.7z M134.6,368.4
  c22.5,0,40.8,18.3,40.8,40.8S157.1,450,134.6,450s-40.8-18.3-40.8-40.8C93.8,386.8,112.1,368.4,134.6,368.4z">
  </path>
</svg>
