<svg id="Ebene_1" xmlns="http://www.w3.org/2000/svg" viewBox="0 0 384 371.76">
  <defs>
    <style>.cls-1{fill:#fff;}</style>
  </defs>
  <title>house-black-silhouette-without-door</title>
  <path class="cls-1"
        d="M379.19,181.38a18.31,18.31,0,0,0-1.5-26.2L206.07,5a21.38,21.38,0,0,0-27.9.32L6,163.19a18.21,18.21,0,0,0-.83,26.16l4.32,4.5c7.16,7.45,18.74,8.34,25.84,2L48.17,184.3V353A18.73,18.73,0,0,0,66.9,371.76H134A18.73,18.73,0,0,0,152.76,353V235h85.61V353c-.14,10.34,7.26,18.72,17.6,18.72H327.1A18.73,18.73,0,0,0,345.84,353V186.68l7.94,7c4.38,3.84,13.57.76,20.53-6.9Zm0,0"/>
</svg>
