<svg id="Ebene_1" xmlns="http://www.w3.org/2000/svg" xmlns:xlink="http://www.w3.org/1999/xlink" viewBox="0 0 384 289.05"><defs><style>.cls-1{fill:none;}.cls-2{clip-path:url(#clip-path);}</style><clipPath id="clip-path" transform="translate(1 0.52)"><rect class="cls-1" x="-1" y="-1" width="384" height="290"/></clipPath></defs><title>list</title><g class="cls-2"><path class="icon-color-white" d="M363.84,283.44H107.07a19.17,19.17,0,0,1,0-38.33H363.84a19.17,19.17,0,0,1,0,38.33Zm0,0" transform="translate(1 0.52)"/><path class="icon-color-white" d="M363.84,163.16H107.07a19.16,19.16,0,0,1,0-38.32H363.84a19.16,19.16,0,1,1,0,38.32Zm0,0" transform="translate(1 0.52)"/></g><path class="icon-color-white" d="M363.84,42.89H107.07a19.16,19.16,0,1,1,0-38.32H363.84a19.16,19.16,0,1,1,0,38.32Zm0,0" transform="translate(1 0.52)"/><path class="icon-color-white" d="M50.46,25.21A25.73,25.73,0,1,1,24.73-.52,25.73,25.73,0,0,1,50.46,25.21Zm0,0" transform="translate(1 0.52)"/><path class="icon-color-white" d="M50.46,144a25.73,25.73,0,1,1-25.73-25.73A25.73,25.73,0,0,1,50.46,144Zm0,0" transform="translate(1 0.52)"/><path class="icon-color-white" d="M50.46,262.79a25.73,25.73,0,1,1-25.73-25.73,25.74,25.74,0,0,1,25.73,25.73Zm0,0" transform="translate(1 0.52)"/></svg>
