<svg id="Ebene_1" xmlns="http://www.w3.org/2000/svg" viewBox="0 0 384 285.56"><defs><style>.cls-1{fill:#fff;}</style></defs><title>logout</title><path class="cls-1" d="M59.59,160.23H261.82a17.45,17.45,0,0,0,0-34.9H59.59l22.57-22.57A17.45,17.45,0,1,0,57.48,78.07L5.12,130.44A15.19,15.19,0,0,0,4,131.7l-.26.34c-.26.34-.52.68-.76,1-.07.1-.13.21-.2.32-.24.37-.47.75-.68,1.15l-.12.24a14,14,0,0,0-.61,1.3s0,.11-.07.17Q1,137,.76,137.7c0,.06,0,.12-.05.18-.14.48-.27,1-.37,1.47,0,.14,0,.29-.07.45-.07.41-.14.82-.18,1.24A16.9,16.9,0,0,0,0,142.78a16.61,16.61,0,0,0,.09,1.74c0,.43.11.85.18,1.26,0,.15,0,.29.07.44.1.5.23,1,.37,1.47,0,.06,0,.12.05.18.15.49.32,1,.51,1.45a.94.94,0,0,1,.06.15c.19.45.4.89.62,1.32l.12.22c.21.4.45.79.69,1.17.06.1.12.2.19.3.24.36.5.71.77,1.05l.24.33c.37.44.75.86,1.16,1.26l52.36,52.37A17.45,17.45,0,0,0,82.16,182.8Zm0,0"/><path class="cls-1" d="M241.22,0A142.69,142.69,0,0,0,122.64,63.23a17.46,17.46,0,0,0,29,19.47,107.86,107.86,0,1,1,.14,120.38,17.45,17.45,0,1,0-28.92,19.54,142.69,142.69,0,0,0,118.38,62.94C320,285.56,384,221.51,384,142.78S320,0,241.22,0Zm0,0"/></svg>
