<svg xmlns="http://www.w3.org/2000/svg" width="16.905" height="16.908" viewBox="0 0 16.905 16.908">
  <defs>
    <style>
      .cls-1 {
        fill: #000;
      }
    </style>
  </defs>
  <g id="Gruppe_4" data-name="Gruppe 4" transform="translate(-0.004)">
    <g id="Gruppe_3" data-name="Gruppe 3" transform="translate(0.004)">
      <path id="Pfad_5" data-name="Pfad 5" class="cls-1" d="M22,5.213l-.253.08-1.347.12-.381.608-.276-.088-1.072-.967-.156-.5-.208-.536-.674-.6-.795-.156-.018.364.779.76.381.449-.428.224-.349-.1-.523-.218.018-.421-.686-.282-.228.991-.691.157.068.553.9.173.156-.883.743.11.346.2h.554L18.24,6l1.006,1.02-.074.4-.811-.1-1.4.708-1.009,1.21-.131.536h-.362l-.675-.311-.656.311.163.692.285-.329.5-.016-.035.621.415.122.415.466.678-.191.774.122.9.242.449.053.761.864,1.469.864-.95,1.815-1,.466L18.568,16.6l-1.451.969-.154.559A8.443,8.443,0,0,0,22,5.213Z" transform="translate(-6.526 -1.463)"/>
      <path id="Pfad_6" data-name="Pfad 6" class="cls-1" d="M9.428,16.35l-.616-1.142.565-1.178-.565-.169-.635-.637L6.772,12.91l-.467-.976v.58H6.1L4.889,10.87V9.521L4,8.077l-1.41.251h-.95l-.478-.313.61-.483-.608.14A8.442,8.442,0,0,0,8.456,20.386a8.85,8.85,0,0,0,1.061-.074l-.088-1.024s.388-1.521.388-1.573S9.428,16.35,9.428,16.35Z" transform="translate(-0.004 -3.478)"/>
      <path id="Pfad_7" data-name="Pfad 7" class="cls-1" d="M4.8,2.726l1.5-.209L7,2.137l.779.224,1.244-.069.426-.67.622.1,1.51-.142.416-.459.587-.392.83.125.3-.046A8.426,8.426,0,0,0,3.6,3.074h0ZM10.472.841l.863-.475.554.32-.8.611-.766.077L9.976,1.15ZM7.915.91l.381.159L8.8.91l.272.471-1.152.3-.554-.324S7.9,1.011,7.915.91Z" transform="translate(-1.663)"/>
    </g>
  </g>
</svg>
